<svg xmlns="http://www.w3.org/2000/svg" data-name="Layer 2" viewBox="0 0 56.81 46.75" x="0px" y="0px"><defs><style>
      .cls-1 {
        stroke-width: 0px;
      }
    </style></defs><g data-name="Vcam 3"><g><path class="cls-1" d="m32.65,37.4l-.63-.28c-4.99-2.22-9.73-3.31-14.49-3.31h-.03c-4.85,0-9.69,1.11-14.37,3.27l-.53.25-.16-.56c-.76-2.71-.43-3.47,1.96-4.52.24-.11.49-.21.73-.31l.32-.13c2.22-.93,2.34-.98,2.06-3.44H0V3.76h34.89l.13.81.04-.03c.37-.33.71-.65.98-1,1.49-1.94,3.22-2.7,5.31-2.32.2.03.43,0,.5-.04C42.96-.04,44.39-.02,45.66,0h3.5c1.35,0,2.7,0,4.05,0,2.23,0,3.57,1.13,3.61,2.99.02.83-.25,1.55-.78,2.09-.62.64-1.58.98-2.76.99h-1.78c-2.2.03-4.47.05-6.71-.04-.77-.03-1.65-.36-2.63-.98-.68-.43-2.14-.57-2.65-.11-.35.31-.68.65-1,.98-.33.34-.66.67-1.01.99-.47.42-.96.82-1.45,1.21l-.21.17h7.06v2.79c.59,0,1.18.01,1.76.02,1.91.03,3.71.05,5.52-.09h0c.4-.03.89-.47,1.36-.89.22-.2.45-.4.67-.57.77-.58,1.52-1.18,2.34-1.83l1.94-1.53v19.57l-.81-.63c-.48-.37-.94-.74-1.4-1.1-1.1-.87-2.13-1.69-3.22-2.44-.61-.42-1.44-.7-2.15-.74-1.48-.08-2.94-.07-4.49-.05-.46,0-.93,0-1.4.01l-.13,2.79h-7.78v4.7h-7.68c0,.13,0,.27,0,.4-.01.68-.02,1.33.04,1.94.02.1.23.35.44.46.45.23.93.42,1.44.62.29.11.58.23.86.35,2.74,1.18,2.86,1.4,2.53,4.62l-.07.69ZM1,27.37h7.39l.05.44c.4,3.48.28,3.71-2.61,4.92l-.32.13c-.24.1-.48.2-.71.3-1.75.77-1.99,1.04-1.55,2.77,4.65-2.07,9.44-3.11,14.25-3.12h.03c4.71,0,9.38,1.02,14.27,3.12.19-1.99,0-2.07-1.99-2.93-.28-.12-.55-.23-.83-.34-.51-.2-1.03-.4-1.53-.66-.43-.23-.92-.74-.98-1.25-.07-.68-.06-1.35-.05-2.07,0-.28.01-.58.01-.88v-.5h7.67v-4.7h7.83l.13-2.79h.48c.63,0,1.25,0,1.87-.01,1.57-.02,3.05-.03,4.56.05.9.05,1.89.39,2.66.91,1.12.76,2.17,1.6,3.28,2.48.19.15.39.31.58.46v-15.46l-.32.25c-.82.65-1.58,1.25-2.35,1.84-.2.15-.4.34-.61.52-.59.53-1.21,1.09-1.95,1.15h0c-1.86.15-3.68.12-5.61.1-.74,0-1.49-.02-2.25-.02h-.5v-2.79h-6.85l-.55-1.2.93-.76c.48-.38.95-.76,1.41-1.17.33-.3.65-.63.97-.95.34-.35.69-.7,1.05-1.03.95-.86,2.95-.56,3.85,0,.83.53,1.55.8,2.14.83,2.21.08,4.48.07,6.66.05h1.78c.9-.02,1.61-.25,2.04-.7.34-.34.5-.81.49-1.37-.03-1.74-1.65-2-2.61-2.01-1.35,0-2.7,0-4.04,0h-3.52c-1.2-.02-2.25-.04-3.07.86-.36.39-1.07.38-1.39.32-1.72-.32-3.06.28-4.33,1.94-.33.43-.72.79-1.11,1.13l-.35.32c-.15.14-.34.19-.47.22l-.67.22-.21-1.28H1v22.61Zm15.73-3.88c-2.93,0-5.84,0-8.71-.02-2.11,0-3.24-1.16-3.27-3.31-.03-2.44-.03-5.04,0-8.2.02-2.31,1.14-3.44,3.43-3.45,2.22-.01,4.43-.01,6.65,0h2.81s3.14,0,3.14,0c2.01,0,4.03,0,6.04,0,2.23.01,3.38,1.13,3.41,3.32.04,2.65.04,5.46,0,8.34-.03,2.14-1.16,3.28-3.28,3.29-3.42.02-6.83.02-10.21.02Zm-4.71-13.99c-1.28,0-2.56,0-3.83.01-1.76.01-2.42.68-2.43,2.46-.02,3.15-.02,5.75,0,8.18.02,1.62.7,2.32,2.27,2.33,6.16.03,12.53.02,18.91,0,1.58,0,2.27-.7,2.29-2.3h0c.04-2.88.04-5.67,0-8.31-.02-1.63-.75-2.33-2.42-2.34-2.01,0-4.02,0-6.03,0h-3.14s-2.81,0-2.81,0c-.94,0-1.87,0-2.81,0Z"/><path class="cls-1" d="m11.08,21.25c-2.47,0-4.48-2.01-4.48-4.48s2.01-4.48,4.48-4.48,4.48,2.01,4.48,4.48-2.01,4.48-4.48,4.48Zm0-7.96c-1.92,0-3.48,1.56-3.48,3.48s1.56,3.48,3.48,3.48,3.48-1.56,3.48-3.48-1.56-3.48-3.48-3.48Z"/><path class="cls-1" d="m23.41,21.25c-2.47,0-4.48-2.01-4.48-4.48s2.01-4.48,4.48-4.48,4.48,2.01,4.48,4.48-2.01,4.48-4.48,4.48Zm0-7.96c-1.92,0-3.48,1.56-3.48,3.48s1.56,3.48,3.48,3.48,3.48-1.56,3.48-3.48-1.56-3.48-3.48-3.48Z"/><path class="cls-1" d="m53.71,4.16h-9.33c-.56,0-1.02-.46-1.02-1.02v-.48c0-.56.46-1.02,1.02-1.02h9.33c.56,0,1.02.46,1.02,1.02v.48c0,.56-.46,1.02-1.02,1.02Zm-9.33-2.26c-.42,0-.77.34-.77.77v.48c0,.42.34.77.77.77h9.33c.42,0,.77-.34.77-.77v-.48c0-.42-.34-.77-.77-.77h-9.33Z"/></g></g></svg>